<?xml version="1.0" encoding="utf-8"?><svg xmlns="http://www.w3.org/2000/svg" xmlns:xlink="http://www.w3.org/1999/xlink" width="683" height="629" preserveAspectRatio="xMidYMid" viewBox="0 0 683 629" style="z-index:1;margin-right:-2px;display:block;background-repeat-y:initial;background-repeat-x:initial;background-color:rgb(241, 242, 243);animation-play-state:paused" ><g transform="translate(341.5,314.5) scale(1,1) translate(-341.5,-314.5)" style="transform:matrix(1, 0, 0, 1, 0, 0);animation-play-state:paused" ><g id="bk-0.36216203287482873" style="animation-play-state:paused" ><path d="M 347 359 L 454 348 L 386 271 Z" stroke="#9bb087" fill="#9bb087" style="animation-play-state:paused" ></path>
<path d="M 454 348 L 456 254 L 386 271 Z" stroke="#99b085" fill="#99b085" style="animation-play-state:paused" ></path>
<path d="M 248 245 L 262 357 L 347 359 Z" stroke="#7ea971" fill="#7ea971" style="animation-play-state:paused" ></path>
<path d="M 378 485 L 451 454 L 454 348 Z" stroke="#6f7b5a" fill="#6f7b5a" style="animation-play-state:paused" ></path>
<path d="M 378 485 L 454 348 L 347 359 Z" stroke="#879772" fill="#879772" style="animation-play-state:paused" ></path>
<path d="M 454 348 L 571 346 L 456 254 Z" stroke="#879772" fill="#879772" style="animation-play-state:paused" ></path>
<path d="M 260 446 L 378 485 L 347 359 Z" stroke="#95a780" fill="#95a780" style="animation-play-state:paused" ></path>
<path d="M 451 454 L 571 346 L 454 348 Z" stroke="#6c7757" fill="#6c7757" style="animation-play-state:paused" ></path>
<path d="M 284 157 L 248 245 L 386 271 Z" stroke="#66a465" fill="#66a465" style="animation-play-state:paused" ></path>
<path d="M 386 271 L 248 245 L 347 359 Z" stroke="#82aa74" fill="#82aa74" style="animation-play-state:paused" ></path>
<path d="M 533 145 L 460 153 L 456 254 Z" stroke="#82aa74" fill="#82aa74" style="animation-play-state:paused" ></path>
<path d="M 456 254 L 460 153 L 386 271 Z" stroke="#87ab77" fill="#87ab77" style="animation-play-state:paused" ></path>
<path d="M 460 153 L 337 163 L 386 271 Z" stroke="#74a76c" fill="#74a76c" style="animation-play-state:paused" ></path>
<path d="M 571 346 L 560 259 L 456 254 Z" stroke="#8b9b76" fill="#8b9b76" style="animation-play-state:paused" ></path>
<path d="M 154 478 L 260 446 L 262 357 Z" stroke="#85ab76" fill="#85ab76" style="animation-play-state:paused" ></path>
<path d="M 262 357 L 260 446 L 347 359 Z" stroke="#90ad7d" fill="#90ad7d" style="animation-play-state:paused" ></path>
<path d="M 337 163 L 284 157 L 386 271 Z" stroke="#65a465" fill="#65a465" style="animation-play-state:paused" ></path>
<path d="M 568 544 L 581 468 L 451 454 Z" stroke="#68703b" fill="#68703b" style="animation-play-state:paused" ></path>
<path d="M 451 454 L 581 468 L 571 346 Z" stroke="#50573c" fill="#50573c" style="animation-play-state:paused" ></path>
<path d="M 571 346 L 674 359 L 560 259 Z" stroke="#6b7656" fill="#6b7656" style="animation-play-state:paused" ></path>
<path d="M 560 259 L 533 145 L 456 254 Z" stroke="#93ae80" fill="#93ae80" style="animation-play-state:paused" ></path>
<path d="M 460 153 L 369 77 L 337 163 Z" stroke="#5ba15d" fill="#5ba15d" style="animation-play-state:paused" ></path>
<path d="M 353 571 L 456 565 L 378 485 Z" stroke="#596144" fill="#596144" style="animation-play-state:paused" ></path>
<path d="M 378 485 L 456 565 L 451 454 Z" stroke="#575f43" fill="#575f43" style="animation-play-state:paused" ></path>
<path d="M 150 151 L 177 280 L 248 245 Z" stroke="#4a9a47" fill="#4a9a47" style="animation-play-state:paused" ></path>
<path d="M 248 245 L 177 280 L 262 357 Z" stroke="#64a465" fill="#64a465" style="animation-play-state:paused" ></path>
<path d="M 246 549 L 353 571 L 378 485 Z" stroke="#788563" fill="#788563" style="animation-play-state:paused" ></path>
<path d="M 177 280 L 153 348 L 262 357 Z" stroke="#63a464" fill="#63a464" style="animation-play-state:paused" ></path>
<path d="M 447 59 L 369 77 L 460 153 Z" stroke="#579f58" fill="#579f58" style="animation-play-state:paused" ></path>
<path d="M 337 163 L 267 82 L 284 157 Z" stroke="#4b9a47" fill="#4b9a47" style="animation-play-state:paused" ></path>
<path d="M 284 157 L 150 151 L 248 245 Z" stroke="#499945" fill="#499945" style="animation-play-state:paused" ></path>
<path d="M 659 450 L 674 359 L 571 346 Z" stroke="#565d3b" fill="#565d3b" style="animation-play-state:paused" ></path>
<path d="M 560 259 L 653 165 L 533 145 Z" stroke="#93ae80" fill="#93ae80" style="animation-play-state:paused" ></path>
<path d="M 533 145 L 447 59 L 460 153 Z" stroke="#69a567" fill="#69a567" style="animation-play-state:paused" ></path>
<path d="M 674 359 L 660 256 L 560 259 Z" stroke="#74805f" fill="#74805f" style="animation-play-state:paused" ></path>
<path d="M 533 145 L 570 52 L 447 59 Z" stroke="#61a364" fill="#61a364" style="animation-play-state:paused" ></path>
<path d="M 153 348 L 154 478 L 262 357 Z" stroke="#72a66b" fill="#72a66b" style="animation-play-state:paused" ></path>
<path d="M 260 446 L 246 549 L 378 485 Z" stroke="#90a27c" fill="#90a27c" style="animation-play-state:paused" ></path>
<path d="M 154 478 L 246 549 L 260 446 Z" stroke="#8fad7d" fill="#8fad7d" style="animation-play-state:paused" ></path>
<path d="M 456 565 L 568 544 L 451 454 Z" stroke="#656d3b" fill="#656d3b" style="animation-play-state:paused" ></path>
<path d="M 581 468 L 659 450 L 571 346 Z" stroke="#5f683b" fill="#5f683b" style="animation-play-state:paused" ></path>
<path d="M 438 642 L 568 544 L 456 565 Z" stroke="#79803a" fill="#79803a" style="animation-play-state:paused" ></path>
<path d="M 377 -43 L 267 82 L 369 77 Z" stroke="#39922c" fill="#39922c" style="animation-play-state:paused" ></path>
<path d="M 369 77 L 267 82 L 337 163 Z" stroke="#499945" fill="#499945" style="animation-play-state:paused" ></path>
<path d="M 651 557 L 659 450 L 581 468 Z" stroke="#8b8f37" fill="#8b8f37" style="animation-play-state:paused" ></path>
<path d="M 674 359 L 750 341 L 660 256 Z" stroke="#5e674a" fill="#5e674a" style="animation-play-state:paused" ></path>
<path d="M 183 69 L 150 151 L 284 157 Z" stroke="#369027" fill="#369027" style="animation-play-state:paused" ></path>
<path d="M 65 252 L 50 368 L 153 348 Z" stroke="#44973e" fill="#44973e" style="animation-play-state:paused" ></path>
<path d="M 653 165 L 570 52 L 533 145 Z" stroke="#7ba86f" fill="#7ba86f" style="animation-play-state:paused" ></path>
<path d="M 660 256 L 653 165 L 560 259 Z" stroke="#94a680" fill="#94a680" style="animation-play-state:paused" ></path>
<path d="M 246 549 L 357 644 L 353 571 Z" stroke="#6f7b5a" fill="#6f7b5a" style="animation-play-state:paused" ></path>
<path d="M 353 571 L 438 642 L 456 565 Z" stroke="#5a623b" fill="#5a623b" style="animation-play-state:paused" ></path>
<path d="M 357 644 L 438 642 L 353 571 Z" stroke="#51593b" fill="#51593b" style="animation-play-state:paused" ></path>
<path d="M 251 -41 L 183 69 L 267 82 Z" stroke="#268013" fill="#268013" style="animation-play-state:paused" ></path>
<path d="M 267 82 L 183 69 L 284 157 Z" stroke="#38912c" fill="#38912c" style="animation-play-state:paused" ></path>
<path d="M 154 478 L 167 569 L 246 549 Z" stroke="#8cac7b" fill="#8cac7b" style="animation-play-state:paused" ></path>
<path d="M 246 549 L 273 676 L 357 644 Z" stroke="#758260" fill="#758260" style="animation-play-state:paused" ></path>
<path d="M 51 472 L 167 569 L 154 478 Z" stroke="#70a66a" fill="#70a66a" style="animation-play-state:paused" ></path>
<path d="M 65 252 L 153 348 L 177 280 Z" stroke="#4a9946" fill="#4a9946" style="animation-play-state:paused" ></path>
<path d="M 153 348 L 51 472 L 154 478 Z" stroke="#5fa362" fill="#5fa362" style="animation-play-state:paused" ></path>
<path d="M 65 252 L 177 280 L 150 151 Z" stroke="#3c9331" fill="#3c9331" style="animation-play-state:paused" ></path>
<path d="M 637 657 L 651 557 L 568 544 Z" stroke="#b5af48" fill="#b5af48" style="animation-play-state:paused" ></path>
<path d="M 568 544 L 651 557 L 581 468 Z" stroke="#929436" fill="#929436" style="animation-play-state:paused" ></path>
<path d="M 772 447 L 750 341 L 674 359 Z" stroke="#626a3b" fill="#626a3b" style="animation-play-state:paused" ></path>
<path d="M 70 171 L 65 252 L 150 151 Z" stroke="#2b8a14" fill="#2b8a14" style="animation-play-state:paused" ></path>
<path d="M 772 447 L 674 359 L 659 450 Z" stroke="#72793a" fill="#72793a" style="animation-play-state:paused" ></path>
<path d="M 660 256 L 768 273 L 653 165 Z" stroke="#899974" fill="#899974" style="animation-play-state:paused" ></path>
<path d="M 456 -38 L 377 -43 L 447 59 Z" stroke="#39922d" fill="#39922d" style="animation-play-state:paused" ></path>
<path d="M 447 59 L 377 -43 L 369 77 Z" stroke="#409538" fill="#409538" style="animation-play-state:paused" ></path>
<path d="M 438 642 L 551 646 L 568 544 Z" stroke="#939535" fill="#939535" style="animation-play-state:paused" ></path>
<path d="M 467 779 L 551 646 L 438 642 Z" stroke="#979835" fill="#979835" style="animation-play-state:paused" ></path>
<path d="M 750 341 L 768 273 L 660 256 Z" stroke="#697454" fill="#697454" style="animation-play-state:paused" ></path>
<path d="M 653 165 L 655 65 L 570 52 Z" stroke="#75a76c" fill="#75a76c" style="animation-play-state:paused" ></path>
<path d="M -33 367 L 51 472 L 50 368 Z" stroke="#3f9436" fill="#3f9436" style="animation-play-state:paused" ></path>
<path d="M 50 368 L 51 472 L 153 348 Z" stroke="#509c4e" fill="#509c4e" style="animation-play-state:paused" ></path>
<path d="M 755 136 L 655 65 L 653 165 Z" stroke="#85ab76" fill="#85ab76" style="animation-play-state:paused" ></path>
<path d="M 579 -27 L 456 -38 L 447 59 Z" stroke="#44963d" fill="#44963d" style="animation-play-state:paused" ></path>
<path d="M 147 641 L 246 549 L 167 569 Z" stroke="#92ae7f" fill="#92ae7f" style="animation-play-state:paused" ></path>
<path d="M 147 641 L 273 676 L 246 549 Z" stroke="#97aa83" fill="#97aa83" style="animation-play-state:paused" ></path>
<path d="M 363 767 L 467 779 L 438 642 Z" stroke="#777e3a" fill="#777e3a" style="animation-play-state:paused" ></path>
<path d="M 579 -27 L 447 59 L 570 52 Z" stroke="#519d50" fill="#519d50" style="animation-play-state:paused" ></path>
<path d="M 67 55 L 70 171 L 150 151 Z" stroke="#207411" fill="#207411" style="animation-play-state:paused" ></path>
<path d="M 651 557 L 772 447 L 659 450 Z" stroke="#989934" fill="#989934" style="animation-play-state:paused" ></path>
<path d="M 750 341 L 772 447 L 768 273 Z" stroke="#565e3b" fill="#565e3b" style="animation-play-state:paused" ></path>
<path d="M 767 560 L 772 447 L 651 557 Z" stroke="#b3ad43" fill="#b3ad43" style="animation-play-state:paused" ></path>
<path d="M 768 273 L 755 136 L 653 165 Z" stroke="#9bae87" fill="#9bae87" style="animation-play-state:paused" ></path>
<path d="M 655 65 L 579 -27 L 570 52 Z" stroke="#58a059" fill="#58a059" style="animation-play-state:paused" ></path>
<path d="M 377 -43 L 251 -41 L 267 82 Z" stroke="#278313" fill="#278313" style="animation-play-state:paused" ></path>
<path d="M 183 69 L 67 55 L 150 151 Z" stroke="#217611" fill="#217611" style="animation-play-state:paused" ></path>
<path d="M 356 -131 L 251 -41 L 377 -43 Z" stroke="#1c6d10" fill="#1c6d10" style="animation-play-state:paused" ></path>
<path d="M 551 646 L 637 657 L 568 544 Z" stroke="#b4ae45" fill="#b4ae45" style="animation-play-state:paused" ></path>
<path d="M 51 472 L 57 585 L 167 569 Z" stroke="#69a566" fill="#69a566" style="animation-play-state:paused" ></path>
<path d="M 57 585 L 147 641 L 167 569 Z" stroke="#7ea971" fill="#7ea971" style="animation-play-state:paused" ></path>
<path d="M 61 -38 L 67 55 L 183 69 Z" stroke="#12560c" fill="#12560c" style="animation-play-state:paused" ></path>
<path d="M 637 657 L 767 560 L 651 557 Z" stroke="#c3bd6d" fill="#c3bd6d" style="animation-play-state:paused" ></path>
<path d="M 772 447 L 767 560 L 768 273 Z" stroke="#7e8439" fill="#7e8439" style="animation-play-state:paused" ></path>
<path d="M 65 252 L -33 367 L 50 368 Z" stroke="#348f24" fill="#348f24" style="animation-play-state:paused" ></path>
<path d="M 51 472 L -41 555 L 57 585 Z" stroke="#509c4e" fill="#509c4e" style="animation-play-state:paused" ></path>
<path d="M -64 241 L -33 367 L 65 252 Z" stroke="#247c12" fill="#247c12" style="animation-play-state:paused" ></path>
<path d="M -64 241 L 65 252 L 70 171 Z" stroke="#227811" fill="#227811" style="animation-play-state:paused" ></path>
<path d="M 755 136 L 739 45 L 655 65 Z" stroke="#77a76d" fill="#77a76d" style="animation-play-state:paused" ></path>
<path d="M 655 65 L 645 -45 L 579 -27 Z" stroke="#509c4e" fill="#509c4e" style="animation-play-state:paused" ></path>
<path d="M 768 273 L 739 45 L 755 136 Z" stroke="#92ae80" fill="#92ae80" style="animation-play-state:paused" ></path>
<path d="M 363 767 L 357 644 L 262 762 Z" stroke="#586043" fill="#586043" style="animation-play-state:paused" ></path>
<path d="M 363 767 L 438 642 L 357 644 Z" stroke="#5e663b" fill="#5e663b" style="animation-play-state:paused" ></path>
<path d="M 551 646 L 661 732 L 637 657 Z" stroke="#c9c37c" fill="#c9c37c" style="animation-play-state:paused" ></path>
<path d="M 753 -43 L 645 -45 L 655 65 Z" stroke="#529d51" fill="#529d51" style="animation-play-state:paused" ></path>
<path d="M 464 -134 L 356 -131 L 456 -38 Z" stroke="#207411" fill="#207411" style="animation-play-state:paused" ></path>
<path d="M 181 -118 L 149 -66 L 251 -41 Z" stroke="#0d4b0a" fill="#0d4b0a" style="animation-play-state:paused" ></path>
<path d="M 262 762 L 357 644 L 273 676 Z" stroke="#697454" fill="#697454" style="animation-play-state:paused" ></path>
<path d="M 251 -41 L 149 -66 L 183 69 Z" stroke="#17620e" fill="#17620e" style="animation-play-state:paused" ></path>
<path d="M 356 -131 L 377 -43 L 456 -38 Z" stroke="#247c12" fill="#247c12" style="animation-play-state:paused" ></path>
<path d="M 464 -134 L 456 -38 L 578 -140 Z" stroke="#268012" fill="#268012" style="animation-play-state:paused" ></path>
<path d="M -33 367 L -30 473 L 51 472 Z" stroke="#3c9331" fill="#3c9331" style="animation-play-state:paused" ></path>
<path d="M -47 156 L -64 241 L 70 171 Z" stroke="#17610e" fill="#17610e" style="animation-play-state:paused" ></path>
<path d="M -136 449 L -41 555 L -30 473 Z" stroke="#2e8d19" fill="#2e8d19" style="animation-play-state:paused" ></path>
<path d="M 142 755 L 273 676 L 147 641 Z" stroke="#9bb087" fill="#9bb087" style="animation-play-state:paused" ></path>
<path d="M 142 755 L 262 762 L 273 676 Z" stroke="#899a75" fill="#899a75" style="animation-play-state:paused" ></path>
<path d="M 46 664 L 147 641 L 57 585 Z" stroke="#71a66a" fill="#71a66a" style="animation-play-state:paused" ></path>
<path d="M 578 -140 L 456 -38 L 579 -27 Z" stroke="#338f23" fill="#338f23" style="animation-play-state:paused" ></path>
<path d="M -41 555 L 46 664 L 57 585 Z" stroke="#559e55" fill="#559e55" style="animation-play-state:paused" ></path>
<path d="M 149 -66 L 61 -38 L 183 69 Z" stroke="#10510b" fill="#10510b" style="animation-play-state:paused" ></path>
<path d="M -37 63 L -47 156 L 70 171 Z" stroke="#11530b" fill="#11530b" style="animation-play-state:paused" ></path>
<path d="M 64 -132 L 61 -38 L 149 -66 Z" stroke="#055639" fill="#055639" style="animation-play-state:paused" ></path>
<path d="M 467 779 L 578 770 L 551 646 Z" stroke="#b6b04c" fill="#b6b04c" style="animation-play-state:paused" ></path>
<path d="M 637 657 L 763 659 L 767 560 Z" stroke="#d3ce95" fill="#d3ce95" style="animation-play-state:paused" ></path>
<path d="M 363 767 L 578 770 L 467 779 Z" stroke="#999934" fill="#999934" style="animation-play-state:paused" ></path>
<path d="M 645 -45 L 578 -140 L 579 -27 Z" stroke="#38912b" fill="#38912b" style="animation-play-state:paused" ></path>
<path d="M -37 63 L 70 171 L 67 55 Z" stroke="#12560c" fill="#12560c" style="animation-play-state:paused" ></path>
<path d="M 578 770 L 661 732 L 551 646 Z" stroke="#c9c37c" fill="#c9c37c" style="animation-play-state:paused" ></path>
<path d="M 661 732 L 763 659 L 637 657 Z" stroke="#dcd7ac" fill="#dcd7ac" style="animation-play-state:paused" ></path>
<path d="M 46 664 L 142 755 L 147 641 Z" stroke="#81aa73" fill="#81aa73" style="animation-play-state:paused" ></path>
<path d="M 262 762 L 62 767 L 363 767 Z" stroke="#869671" fill="#869671" style="animation-play-state:paused" ></path>
<path d="M 61 -38 L -37 63 L 67 55 Z" stroke="#074713" fill="#074713" style="animation-play-state:paused" ></path>
<path d="M 356 -131 L 248 -169 L 251 -41 Z" stroke="#10520b" fill="#10520b" style="animation-play-state:paused" ></path>
<path d="M 464 -134 L 248 -169 L 356 -131 Z" stroke="#11540b" fill="#11540b" style="animation-play-state:paused" ></path>
<path d="M 650 -128 L 248 -169 L 464 -134 Z" stroke="#19660f" fill="#19660f" style="animation-play-state:paused" ></path>
<path d="M -136 449 L -30 473 L -33 367 Z" stroke="#288513" fill="#288513" style="animation-play-state:paused" ></path>
<path d="M -30 473 L -41 555 L 51 472 Z" stroke="#43963c" fill="#43963c" style="animation-play-state:paused" ></path>
<path d="M 248 -169 L 181 -118 L 251 -41 Z" stroke="#0b4609" fill="#0b4609" style="animation-play-state:paused" ></path>
<path d="M 61 -38 L -40 -61 L -37 63 Z" stroke="#0e5c46" fill="#0e5c46" style="animation-play-state:paused" ></path>
<path d="M 645 -45 L 650 -128 L 578 -140 Z" stroke="#2e8d19" fill="#2e8d19" style="animation-play-state:paused" ></path>
<path d="M 739 45 L 753 -43 L 655 65 Z" stroke="#5da25f" fill="#5da25f" style="animation-play-state:paused" ></path>
<path d="M 775 -141 L 753 -43 L 739 45 Z" stroke="#489843" fill="#489843" style="animation-play-state:paused" ></path>
<path d="M 753 -43 L 650 -128 L 645 -45 Z" stroke="#3d9333" fill="#3d9333" style="animation-play-state:paused" ></path>
<path d="M 578 -140 L 650 -128 L 464 -134 Z" stroke="#237a12" fill="#237a12" style="animation-play-state:paused" ></path>
<path d="M -64 241 L -153 352 L -33 367 Z" stroke="#19660f" fill="#19660f" style="animation-play-state:paused" ></path>
<path d="M -158 267 L -153 352 L -64 241 Z" stroke="#0f4e0a" fill="#0f4e0a" style="animation-play-state:paused" ></path>
<path d="M -158 267 L -64 241 L -129 186 Z" stroke="#0b4508" fill="#0b4508" style="animation-play-state:paused" ></path>
<path d="M -129 186 L -64 241 L -47 156 Z" stroke="#0d4909" fill="#0d4909" style="animation-play-state:paused" ></path>
<path d="M -143 55 L -129 186 L -47 156 Z" stroke="#045536" fill="#045536" style="animation-play-state:paused" ></path>
<path d="M -35 772 L 62 767 L 46 664 Z" stroke="#5ea261" fill="#5ea261" style="animation-play-state:paused" ></path>
<path d="M 46 664 L 62 767 L 142 755 Z" stroke="#78a86e" fill="#78a86e" style="animation-play-state:paused" ></path>
<path d="M 142 755 L 62 767 L 262 762 Z" stroke="#94ae81" fill="#94ae81" style="animation-play-state:paused" ></path>
<path d="M 248 -169 L 64 -132 L 181 -118 Z" stroke="#08583e" fill="#08583e" style="animation-play-state:paused" ></path>
<path d="M 181 -118 L 64 -132 L 149 -66 Z" stroke="#045536" fill="#045536" style="animation-play-state:paused" ></path>
<path d="M -37 63 L -143 55 L -47 156 Z" stroke="#045536" fill="#045536" style="animation-play-state:paused" ></path>
<path d="M -41 555 L -39 660 L 46 664 Z" stroke="#4d9b4a" fill="#4d9b4a" style="animation-play-state:paused" ></path>
<path d="M -137 581 L -39 660 L -41 555 Z" stroke="#37912a" fill="#37912a" style="animation-play-state:paused" ></path>
<path d="M -153 352 L -136 449 L -33 367 Z" stroke="#1c6b0f" fill="#1c6b0f" style="animation-play-state:paused" ></path>
<path d="M 64 -132 L -40 -61 L 61 -38 Z" stroke="#22655a" fill="#22655a" style="animation-play-state:paused" ></path>
<path d="M 578 770 L 773 783 L 661 732 Z" stroke="#d9d1ac" fill="#d9d1ac" style="animation-play-state:paused" ></path>
<path d="M 661 732 L 773 783 L 763 659 Z" stroke="#cab590" fill="#cab590" style="animation-play-state:paused" ></path>
<path d="M 763 659 L 773 783 L 767 560 Z" stroke="#d9d1ac" fill="#d9d1ac" style="animation-play-state:paused" ></path>
<path d="M 767 560 L 773 783 L 768 273 Z" stroke="#bbb659" fill="#bbb659" style="animation-play-state:paused" ></path>
<path d="M 768 273 L 775 -141 L 739 45 Z" stroke="#6fa669" fill="#6fa669" style="animation-play-state:paused" ></path>
<path d="M 753 -43 L 775 -141 L 650 -128 Z" stroke="#348f23" fill="#348f23" style="animation-play-state:paused" ></path>
<path d="M 650 -128 L 775 -141 L 248 -169 Z" stroke="#207411" fill="#207411" style="animation-play-state:paused" ></path>
<path d="M 773 783 L 775 -141 L 768 273 Z" stroke="#5f684b" fill="#5f684b" style="animation-play-state:paused" ></path>
<path d="M -136 449 L -137 581 L -41 555 Z" stroke="#288413" fill="#288413" style="animation-play-state:paused" ></path>
<path d="M -40 -61 L -143 55 L -37 63 Z" stroke="#24665d" fill="#24665d" style="animation-play-state:paused" ></path>
<path d="M -129 186 L -143 55 L -158 267 Z" stroke="#08583e" fill="#08583e" style="animation-play-state:paused" ></path>
<path d="M -158 267 L -143 55 L -153 352 Z" stroke="#034f28" fill="#034f28" style="animation-play-state:paused" ></path>
<path d="M -137 673 L -35 772 L -39 660 Z" stroke="#3e9435" fill="#3e9435" style="animation-play-state:paused" ></path>
<path d="M -39 660 L -35 772 L 46 664 Z" stroke="#529d51" fill="#529d51" style="animation-play-state:paused" ></path>
<path d="M -151 745 L -137 673 L -137 581 Z" stroke="#268113" fill="#268113" style="animation-play-state:paused" ></path>
<path d="M -137 581 L -137 673 L -39 660 Z" stroke="#2f8d1b" fill="#2f8d1b" style="animation-play-state:paused" ></path>
<path d="M -151 745 L -137 581 L -136 449 Z" stroke="#237a12" fill="#237a12" style="animation-play-state:paused" ></path>
<path d="M 64 -132 L -35 -161 L -40 -61 Z" stroke="#50767b" fill="#50767b" style="animation-play-state:paused" ></path>
<path d="M -40 -61 L -128 -44 L -143 55 Z" stroke="#4e767a" fill="#4e767a" style="animation-play-state:paused" ></path>
<path d="M 248 -169 L -35 -161 L 64 -132 Z" stroke="#336c68" fill="#336c68" style="animation-play-state:paused" ></path>
<path d="M -138 -146 L -128 -44 L -40 -61 Z" stroke="#5b7881" fill="#5b7881" style="animation-play-state:paused" ></path>
<path d="M -137 673 L -151 745 L -35 772 Z" stroke="#328f21" fill="#328f21" style="animation-play-state:paused" ></path>
<path d="M -35 772 L -151 745 L 62 767 Z" stroke="#499945" fill="#499945" style="animation-play-state:paused" ></path>
<path d="M -153 352 L -151 745 L -136 449 Z" stroke="#1d6f10" fill="#1d6f10" style="animation-play-state:paused" ></path>
<path d="M -143 55 L -151 745 L -153 352 Z" stroke="#13580c" fill="#13580c" style="animation-play-state:paused" ></path>
<path d="M -35 -161 L -138 -146 L -40 -61 Z" stroke="#5a7781" fill="#5a7781" style="animation-play-state:paused" ></path>
<path d="M -128 -44 L -138 -146 L -143 55 Z" stroke="#5b7881" fill="#5b7881" style="animation-play-state:paused" ></path></g>
<style type="text/css" style="animation-play-state:paused" >#bk-0.36216203287482873 path { stroke-width: 1 }</style></g></svg>