<?xml version="1.0" encoding="utf-8"?><svg xmlns="http://www.w3.org/2000/svg" xmlns:xlink="http://www.w3.org/1999/xlink" width="1366" height="575" preserveAspectRatio="xMidYMid" viewBox="0 0 1366 575" style="z-index:1;margin-right:-2px;display:block;background-repeat-y:initial;background-repeat-x:initial;background-color:rgb(241, 242, 243);animation-play-state:paused" ><g transform="translate(683,287.5) scale(1,1) translate(-683,-287.5)" style="transform:matrix(1, 0, 0, 1, 0, 0);animation-play-state:paused" ><circle cx="0" cy="0" r="1482.0867046161638" fill="#466b5a" fill-opacity="0.4" transform="matrix(0.9950000047683716,0,0,0.9950000047683716,0,0)" style="transform:matrix(0.995, 0, 0, 0.995, 0, 0);animation-play-state:paused" ></circle>
<circle cx="0" cy="0" r="1347.351549651058" fill="#48765e" fill-opacity="0.4" transform="matrix(0.9957138299942017,0,0,0.9957138299942017,0,0)" style="transform:matrix(0.995714, 0, 0, 0.995714, 0, 0);animation-play-state:paused" ></circle>
<circle cx="0" cy="0" r="1212.6163946859524" fill="#4b8061" fill-opacity="0.4" transform="matrix(0.99781733751297,0,0,0.99781733751297,0,0)" style="transform:matrix(0.997817, 0, 0, 0.997817, 0, 0);animation-play-state:paused" ></circle>
<circle cx="0" cy="0" r="1077.8812397208465" fill="#4f8b64" fill-opacity="0.4" transform="matrix(1.0007541179656982,0,0,1.0007541179656982,0,0)" style="transform:matrix(1.00075, 0, 0, 1.00075, 0, 0);animation-play-state:paused" ></circle>
<circle cx="0" cy="0" r="943.1460847557406" fill="#549665" fill-opacity="0.4" transform="matrix(1.0033912658691406,0,0,1.0033912658691406,0,0)" style="transform:matrix(1.00339, 0, 0, 1.00339, 0, 0);animation-play-state:paused" ></circle>
<circle cx="0" cy="0" r="808.4109297906348" fill="#5ba066" fill-opacity="0.4" transform="matrix(1.004823923110962,0,0,1.004823923110962,0,0)" style="transform:matrix(1.00482, 0, 0, 1.00482, 0, 0);animation-play-state:paused" ></circle>
<circle cx="0" cy="0" r="673.675774825529" fill="#63ab66" fill-opacity="0.4" transform="matrix(1.004823923110962,0,0,1.004823923110962,0,0)" style="transform:matrix(1.00482, 0, 0, 1.00482, 0, 0);animation-play-state:paused" ></circle>
<circle cx="0" cy="0" r="538.9406198604232" fill="#6cb665" fill-opacity="0.4" transform="matrix(1.0033912658691406,0,0,1.0033912658691406,0,0)" style="transform:matrix(1.00339, 0, 0, 1.00339, 0, 0);animation-play-state:paused" ></circle>
<circle cx="0" cy="0" r="404.2054648953174" fill="#77c063" fill-opacity="0.4" transform="matrix(1.0007541179656982,0,0,1.0007541179656982,0,0)" style="transform:matrix(1.00075, 0, 0, 1.00075, 0, 0);animation-play-state:paused" ></circle>
<circle cx="0" cy="0" r="269.4703099302116" fill="#83ca60" fill-opacity="0.4" transform="matrix(0.9978172779083252,0,0,0.9978172779083252,0,0)" style="transform:matrix(0.997817, 0, 0, 0.997817, 0, 0);animation-play-state:paused" ></circle>
<circle cx="0" cy="0" r="134.7351549651058" fill="#91d45d" fill-opacity="0.4" transform="matrix(0.9957138299942017,0,0,0.9957138299942017,0,0)" style="transform:matrix(0.995714, 0, 0, 0.995714, 0, 0);animation-play-state:paused" ></circle>
<circle cx="0" cy="0" r="0" fill="#a0de59" fill-opacity="0.4" transform="matrix(0.9950000047683716,0,0,0.9950000047683716,0,0)" style="transform:matrix(0.995, 0, 0, 0.995, 0, 0);animation-play-state:paused" ></circle></g></svg>