<?xml version="1.0" standalone="no"?>
<!DOCTYPE svg PUBLIC "-//W3C//DTD SVG 20010904//EN"
 "http://www.w3.org/TR/2001/REC-SVG-20010904/DTD/svg10.dtd">
<svg version="1.0" xmlns="http://www.w3.org/2000/svg"
 width="337.000000pt" height="68.000000pt" viewBox="0 0 337.000000 68.000000"
 preserveAspectRatio="xMidYMid meet">
<metadata>
Created by potrace 1.16, written by Peter Selinger 2001-2019
</metadata>
<g transform="translate(0.000000,68.000000) scale(0.100000,-0.100000)"
fill="#000000" stroke="none">
<path d="M264 522 c-7 -4 -37 -56 -67 -117 -30 -60 -71 -138 -90 -172 -19 -34
-33 -64 -29 -67 3 -3 1 -6 -5 -6 -6 0 -9 -8 -7 -17 4 -13 16 -18 44 -19 22 0
37 3 34 8 -3 4 -1 8 5 8 6 0 20 18 31 40 20 39 21 40 74 40 53 0 55 -1 61 -31
4 -17 4 -33 2 -36 -14 -13 19 -28 55 -25 l39 4 -6 42 c-15 116 -34 339 -29
347 6 11 -96 12 -112 1z"/>
<path d="M596 513 c-39 -16 -93 -62 -88 -75 1 -5 -2 -8 -7 -8 -5 0 -14 -13
-21 -30 -15 -35 -29 -150 -19 -150 4 0 5 -9 2 -20 -3 -12 0 -20 8 -20 7 0 10
-3 6 -6 -3 -4 9 -22 28 -42 30 -33 39 -36 97 -40 36 -2 80 2 103 10 l39 13 18
85 c26 129 31 120 -62 120 -64 0 -78 -3 -74 -14 3 -8 1 -17 -5 -21 -25 -15
-11 -35 24 -35 34 0 35 -1 29 -27 -9 -39 -23 -53 -51 -53 -33 0 -73 42 -73 78
0 109 90 196 174 167 41 -14 59 -6 75 36 9 25 7 27 -28 38 -53 15 -129 13
-175 -6z"/>
<path d="M1695 520 c-4 -6 -9 -8 -13 -6 -4 2 -24 -6 -45 -18 -28 -15 -43 -32
-52 -60 -8 -21 -20 -43 -27 -47 -16 -10 -22 -189 -7 -189 6 0 7 -4 4 -10 -3
-5 -1 -10 4 -10 6 0 11 -6 11 -14 0 -25 83 -49 145 -43 30 3 59 8 65 12 5 3
10 24 10 47 0 34 -3 39 -17 33 -63 -24 -126 -11 -137 28 -17 63 10 147 60 186
29 23 58 24 121 6 17 -6 25 -1 37 24 17 32 20 52 9 49 -5 -1 -21 4 -36 10 -35
15 -124 16 -132 2z"/>
<path d="M2101 513 c-6 -7 -11 -16 -11 -20 0 -5 -9 -15 -19 -22 -11 -8 -17
-20 -14 -28 3 -7 -2 -13 -11 -13 -10 0 -13 -6 -10 -15 4 -8 1 -15 -4 -15 -6 0
-12 -8 -14 -17 -2 -10 -12 17 -22 60 l-18 78 -41 -3 -42 -3 2 -39 c2 -22 8
-43 13 -46 6 -4 8 -14 4 -23 -3 -10 -1 -17 6 -17 7 0 9 -8 5 -20 -3 -11 -2
-20 3 -20 6 0 10 -10 10 -22 0 -13 2 -37 4 -55 3 -18 2 -34 -3 -35 -4 -2 -11
-27 -15 -56 l-7 -52 46 0 45 0 13 67 c11 56 26 85 96 189 46 68 83 127 83 131
0 13 -86 9 -99 -4z"/>
<path d="M2300 514 c0 -8 -4 -14 -9 -14 -4 0 -6 -11 -3 -25 2 -14 0 -25 -5
-25 -6 0 -8 -11 -5 -25 2 -14 0 -25 -4 -25 -5 0 -10 -19 -11 -42 -1 -23 -6
-44 -11 -46 -5 -1 -7 -14 -4 -27 2 -14 0 -25 -5 -25 -6 0 -8 -11 -5 -25 2 -14
0 -25 -7 -25 -5 0 -8 -7 -4 -16 3 -9 1 -19 -5 -23 -6 -4 -7 -12 -3 -20 7 -11
109 -14 515 -19 466 -5 506 -4 506 11 0 10 4 17 9 17 5 0 7 9 4 20 -3 11 -1
20 5 20 6 0 8 9 5 20 -3 12 0 20 7 20 7 0 9 8 5 20 -4 12 -2 20 5 20 7 0 9 8
5 20 -4 12 -2 20 5 20 7 0 9 8 5 20 -4 12 -2 20 5 20 7 0 9 8 5 19 -3 11 -1
22 5 26 6 3 8 11 4 16 -3 5 -2 15 3 22 5 7 9 19 8 27 0 8 4 18 10 22 6 5 6 10
0 16 -6 6 -230 12 -522 15 -437 4 -513 3 -513 -9z m200 -84 c0 -5 13 -5 30 0
18 5 30 5 30 -1 0 -5 11 -7 25 -3 21 5 25 3 26 -17 l0 -24 11 23 c9 18 19 22
55 22 34 0 43 -4 43 -17 1 -17 1 -17 11 0 17 29 39 21 40 -15 l1 -33 7 29 c8
37 28 45 40 14 l10 -23 0 23 c1 17 7 22 26 22 14 0 25 -6 26 -12 0 -10 2 -10
6 0 2 6 11 12 20 12 8 0 13 -3 11 -8 -31 -71 -44 -92 -52 -89 -6 2 -10 19 -9
38 l2 34 -12 -40 -13 -40 -16 23 c-15 22 -16 22 -21 3 -5 -21 -34 -23 -46 -2
-6 9 -11 8 -21 -3 -14 -18 -34 -11 -26 10 8 20 -18 12 -26 -8 -6 -14 -23 -17
-48 -8 -3 1 -48 3 -100 4 l-95 1 -3 28 c-2 16 3 36 12 46 16 18 56 26 56 11z
m8 -144 c4 -16 5 -16 17 1 9 12 26 18 55 18 l42 0 -6 -37 c-4 -21 -2 -38 3
-38 11 0 24 48 16 60 -4 6 11 10 34 10 26 0 41 -5 42 -12 0 -10 2 -10 6 0 4
11 93 19 93 8 0 -19 -22 -56 -30 -51 -5 3 -10 1 -10 -4 0 -6 5 -11 10 -11 6 0
10 -4 10 -10 0 -15 -80 -6 -90 10 -8 13 -10 13 -10 -1 0 -14 -12 -16 -77 -13
-43 2 -83 6 -90 8 -6 3 -13 0 -15 -6 -2 -6 -11 -4 -21 6 -9 10 -17 13 -17 7 0
-6 -14 -11 -31 -11 -29 0 -31 2 -26 29 4 18 2 31 -5 33 -7 3 -8 10 -4 17 12
19 100 9 104 -13z m353 -3 c1 -17 2 -17 6 0 4 15 17 17 109 16 57 0 104 -4
104 -7 -1 -26 -15 -52 -29 -53 -10 0 -11 -2 -3 -6 6 -2 12 -9 12 -14 0 -13
-64 -11 -78 3 -9 9 -12 9 -12 0 0 -8 -17 -12 -51 -11 -41 2 -52 6 -59 23 -9
21 -9 21 -9 -1 -1 -24 -15 -31 -26 -12 -11 18 5 79 20 79 8 0 16 -8 16 -17z"/>
<path d="M889 498 c-1 -13 -2 -30 -3 -38 -1 -8 -5 -21 -9 -27 -5 -7 -5 -18 -2
-23 4 -6 2 -16 -3 -23 -12 -15 -32 -109 -25 -120 2 -4 -1 -14 -7 -22 -6 -8 -9
-19 -5 -25 4 -6 2 -16 -3 -23 -5 -7 -12 -25 -16 -40 l-7 -28 118 3 118 3 3 32
3 32 -63 3 c-68 3 -66 1 -53 66 5 20 11 22 69 22 63 0 64 0 70 31 3 17 6 35 6
40 0 5 -28 9 -61 9 l-61 0 6 31 c3 17 6 35 6 40 0 5 31 9 69 9 67 0 69 1 79
29 6 16 8 32 5 35 -4 3 -57 6 -120 6 -110 0 -113 -1 -114 -22z"/>
<path d="M1192 512 c-6 -5 -13 -26 -15 -48 -1 -21 -6 -45 -10 -51 -5 -7 -5
-18 -2 -23 4 -6 2 -16 -3 -23 -12 -15 -32 -109 -25 -120 2 -4 0 -14 -6 -21 -6
-7 -9 -21 -5 -30 3 -9 2 -16 -4 -16 -5 0 -12 -9 -15 -20 -6 -22 22 -34 64 -28
21 3 25 14 46 113 12 61 23 120 23 133 0 12 5 22 11 22 6 0 9 -7 6 -14 -7 -17
41 -168 56 -177 5 -4 6 -12 3 -18 -4 -6 -2 -11 4 -11 7 0 10 -6 8 -12 -8 -22
19 -38 65 -38 l43 0 38 182 c21 100 40 188 43 195 4 10 -7 13 -41 13 -47 0
-47 1 -50 -50 -1 -8 -4 -20 -9 -27 -4 -6 -4 -18 -1 -27 3 -9 2 -16 -3 -16 -12
0 -35 -119 -26 -134 4 -7 3 -8 -4 -1 -5 6 -27 65 -48 133 l-39 122 -45 0 c-25
0 -52 -4 -59 -8z"/>
</g>
</svg>
