<?xml version="1.0" encoding="utf-8"?><svg xmlns="http://www.w3.org/2000/svg" xmlns:xlink="http://www.w3.org/1999/xlink" width="1366" height="636" preserveAspectRatio="xMidYMid" viewBox="0 0 1366 636" style="z-index:1;margin-right:-2px;display:block;background-repeat-y:initial;background-repeat-x:initial;background-color:rgb(241, 242, 243);animation-play-state:paused" ><g transform="translate(683,318) scale(1,1) translate(-683,-318)" style="transform:matrix(1, 0, 0, 1, 0, 0);animation-play-state:paused" ><linearGradient id="lg-0.7219185572397244" x1="0" x2="0.5" y1="0" y2="0" gradientUnits="objectBoundingBox" style="animation-play-state:paused" ><stop stop-color="#8dc73f" offset="0" style="animation-play-state:paused" ></stop>

  
<stop stop-color="#d6df22" offset="1" style="animation-play-state:paused" ></stop></linearGradient>
<path d="M -650.545 636 Q -605.483 491.791 -551.848 345.867 T -265.419 84.1348 T 180.705 -123.577 T 742.853 -256.937 T 1366 -302.889 T 1989.15 -256.937 T 2551.3 -123.577 T 2997.42 84.1348 T 3283.85 345.867 T 3382.54 636" fill="url(#lg-0.7219185572397244)" opacity="0.9" style="opacity:0.9;animation-play-state:paused" ></path>
<path d="M -448.89 636 Q -398.552 494.895 -339.439 346.993 T -24.2868 92.8443 T 458.555 -95.7917 T 1050.85 -196.163 T 1681.15 -196.163 T 2273.45 -95.7917 T 2756.29 92.8443 T 3071.44 346.993 T 3180.89 636" fill="url(#lg-0.7219185572397244)" opacity="0.9" style="opacity:0.9;animation-play-state:paused" ></path>
<path d="M -247.236 636 Q -171.008 494.687 -124.436 348.562 T 225.27 104.884 T 748.641 -57.9364 T 1366 -115.111 T 1983.36 -57.9364 T 2506.73 104.884 T 2856.44 348.562 T 2979.24 636" fill="url(#lg-0.7219185572397244)" opacity="0.9" style="opacity:0.9;animation-play-state:paused" ></path>
<path d="M -45.5815 636 Q 54.7485 492.497 94.209 350.842 T 485.893 122.163 T 1051.89 -4.74448 T 1680.11 -4.74448 T 2246.11 122.163 T 2637.79 350.842 T 2777.58 636" fill="url(#lg-0.7219185572397244)" opacity="0.9" style="opacity:0.9;animation-play-state:paused" ></path>
<path d="M 156.073 636 Q 250.914 495.35 318.172 354.333 T 761.036 148.139 T 1366 72.6665 T 1970.96 148.139 T 2413.83 354.333 T 2575.93 636" fill="url(#lg-0.7219185572397244)" opacity="0.9" style="opacity:0.9;animation-play-state:paused" ></path>
<path d="M 357.728 636 Q 460.875 502.688 550.29 360.067 T 1054.43 189.532 T 1677.57 189.532 T 2181.71 360.067 T 2374.27 636" fill="url(#lg-0.7219185572397244)" opacity="0.9" style="opacity:0.9;animation-play-state:paused" ></path>
<path d="M 559.382 636 Q 679.108 501.47 795.635 370.442 T 1366 260.444 T 1936.36 370.442 T 2172.62 636" fill="url(#lg-0.7219185572397244)" opacity="0.9" style="opacity:0.9;animation-play-state:paused" ></path>
<path d="M 761.036 636 Q 915.81 505.586 1063.52 392.069 T 1668.48 392.069 T 1970.96 636" fill="url(#lg-0.7219185572397244)" opacity="0.9" style="opacity:0.9;animation-play-state:paused" ></path>
<path d="M 962.691 636 Q 1142.57 526.84 1366 448.222 T 1769.31 636" fill="url(#lg-0.7219185572397244)" opacity="0.9" style="opacity:0.9;animation-play-state:paused" ></path>
<path d="M 1164.35 636 Q 1366 563.555 1567.65 636" fill="url(#lg-0.7219185572397244)" opacity="0.9" style="opacity:0.9;animation-play-state:paused" ></path></g></svg>